<svg width="18" height="17" viewBox="0 0 18 17" fill="none" xmlns="http://www.w3.org/2000/svg">
<path d="M18 8.55195C18 3.82883 13.9706 0 9.00001 0C4.02943 0 0 3.82883 0 8.55195C0 12.8205 3.29117 16.3584 7.59375 17V11.024H5.3086V8.55195H7.59375V6.66785C7.59375 4.52451 8.93738 3.34061 10.9932 3.34061C11.9779 3.34061 13.0078 3.50763 13.0078 3.50763V5.61221H11.8729C10.7549 5.61221 10.4063 6.27144 10.4063 6.94775V8.55195H12.9024L12.5033 11.024H10.4062V17C14.7088 16.3584 18 12.8205 18 8.55195" fill="#100F0D"/>
<path d="M12.4553 10.8874L12.8675 8.40212H10.2889V6.7893C10.2889 6.10938 10.6491 5.44663 11.8041 5.44663H12.9764V3.33076C12.9764 3.33076 11.9125 3.16284 10.8953 3.16284C8.77157 3.16284 7.38357 4.35309 7.38357 6.50792V8.40212H5.02295V10.8874H7.38357V16.8955C7.86413 16.9651 8.34983 17 8.83626 16.9999C9.33047 16.9999 9.81561 16.9641 10.2889 16.8955V10.8874H12.4553Z" fill="white"/>
</svg>
