<svg width="17" height="21" viewBox="0 0 17 21" fill="none" xmlns="http://www.w3.org/2000/svg">
<g clip-path="url(#clip0)">
<path d="M13.3632 0.391113H2.67264C1.96381 0.391113 1.28401 0.676815 0.782798 1.18537C0.281581 1.69392 0 2.38366 0 3.10286L0 13.9499C0 14.6691 0.281581 15.3588 0.782798 15.8674C1.28401 16.3759 1.96381 16.6616 2.67264 16.6616H13.3632C14.072 16.6616 14.7518 16.3759 15.253 15.8674C15.7543 15.3588 16.0358 14.6691 16.0358 13.9499V3.10286C16.0358 2.38366 15.7543 1.69392 15.253 1.18537C14.7518 0.676815 14.072 0.391113 13.3632 0.391113V0.391113ZM14.6995 13.9499C14.6995 14.3095 14.5587 14.6543 14.3081 14.9086C14.0575 15.1629 13.7176 15.3057 13.3632 15.3057H2.67264C2.31823 15.3057 1.97833 15.1629 1.72772 14.9086C1.47711 14.6543 1.33632 14.3095 1.33632 13.9499V3.10286C1.33632 2.74326 1.47711 2.39839 1.72772 2.14412C1.97833 1.88984 2.31823 1.74699 2.67264 1.74699H13.3632C13.7176 1.74699 14.0575 1.88984 14.3081 2.14412C14.5587 2.39839 14.6995 2.74326 14.6995 3.10286V13.9499Z" fill="black"/>
<path d="M8.01799 4.45874C7.2251 4.45874 6.45001 4.6973 5.79074 5.14426C5.13147 5.59122 4.61763 6.22649 4.3142 6.96975C4.01077 7.71302 3.93138 8.53088 4.08607 9.31992C4.24075 10.109 4.62257 10.8337 5.18323 11.4026C5.7439 11.9715 6.45822 12.3589 7.23589 12.5158C8.01355 12.6728 8.81962 12.5922 9.55216 12.2844C10.2847 11.9765 10.9108 11.4551 11.3513 10.7862C11.7918 10.1173 12.027 9.33087 12.027 8.52637C12.027 7.44757 11.6046 6.41295 10.8528 5.65012C10.1009 4.88729 9.08124 4.45874 8.01799 4.45874ZM8.01799 11.2381C7.4894 11.2381 6.97267 11.0791 6.53316 10.7811C6.09364 10.4831 5.75108 10.0596 5.5488 9.56411C5.34651 9.0686 5.29358 8.52336 5.39671 7.99733C5.49983 7.4713 5.75438 6.98811 6.12815 6.60887C6.50193 6.22962 6.97815 5.97135 7.49659 5.86672C8.01503 5.76209 8.55241 5.81579 9.04077 6.02104C9.52913 6.22628 9.94654 6.57385 10.2402 7.0198C10.5339 7.46574 10.6906 7.99003 10.6906 8.52637C10.6906 9.24557 10.4091 9.93531 9.90784 10.4439C9.40662 10.9524 8.72682 11.2381 8.01799 11.2381Z" fill="black"/>
<path d="M12.3609 5.13684C12.9144 5.13684 13.3631 4.68156 13.3631 4.11993C13.3631 3.55831 12.9144 3.10303 12.3609 3.10303C11.8074 3.10303 11.3586 3.55831 11.3586 4.11993C11.3586 4.68156 11.8074 5.13684 12.3609 5.13684Z" fill="black"/>
</g>
<defs>
<clipPath id="clip0">
<rect width="16.0358" height="20.3381" fill="white" transform="translate(0 0.391113)"/>
</clipPath>
</defs>
</svg>
