<?xml version="1.0" encoding="iso-8859-1"?>
<!-- Generator: Adobe Illustrator 19.0.0, SVG Export Plug-In . SVG Version: 6.00 Build 0)  -->
<svg version="1.1" id="Layer_1" xmlns="http://www.w3.org/2000/svg" xmlns:xlink="http://www.w3.org/1999/xlink" x="0px" y="0px"
	 viewBox="0 0 502 502" style="enable-background:new 0 0 502 502;" xml:space="preserve">
<g>
	<g>
		<g>
			<path d="M499.071,2.929c-2.832-2.832-7.078-3.698-10.795-2.21l-482,193.36c-3.42,1.372-5.808,4.514-6.215,8.176
				c-0.407,3.663,1.232,7.252,4.268,9.342l167.338,115.217V420c0,4.045,2.437,7.691,6.173,9.239
				c1.237,0.512,2.537,0.761,3.825,0.761c2.603,0,5.16-1.016,7.073-2.929l31.421-31.421l70.244,102.021
				c1.878,2.729,4.969,4.329,8.234,4.329c0.367,0,0.737-0.021,1.107-0.062c3.662-0.407,6.804-2.795,8.176-6.215l193.36-482
				C502.771,10.007,501.902,5.76,499.071,2.929z M179.757,308.101L31.029,205.698L450.391,37.466L179.757,308.101z M191.667,395.857
				v-41.589l16.959,24.63L191.667,395.857z M296.302,470.971l-65.659-95.361c-0.216-0.44-0.458-0.873-0.744-1.287l-35.95-52.128
				L464.534,51.609L296.302,470.971z"/>
			<path d="M371.736,188.371c2.559,0,5.118-0.977,7.071-2.929l9.105-9.105c3.906-3.905,3.906-10.238,0.001-14.143
				c-3.906-3.904-10.236-3.904-14.143,0l-9.105,9.105c-3.905,3.905-3.905,10.237,0,14.143
				C366.618,187.394,369.177,188.371,371.736,188.371z"/>
			<path d="M218.241,331.867c1.953,1.952,4.512,2.929,7.071,2.929s5.118-0.977,7.071-2.929l118.398-118.398
				c3.905-3.905,3.905-10.237,0-14.143c-3.905-3.905-10.235-3.905-14.141-0.001L218.241,317.724
				C214.336,321.629,214.336,327.961,218.241,331.867z"/>
		</g>
	</g>
</g>
<g>
</g>
<g>
</g>
<g>
</g>
<g>
</g>
<g>
</g>
<g>
</g>
<g>
</g>
<g>
</g>
<g>
</g>
<g>
</g>
<g>
</g>
<g>
</g>
<g>
</g>
<g>
</g>
<g>
</g>
</svg>
