<svg id="Layer_1" data-name="Layer 1" xmlns="http://www.w3.org/2000/svg" viewBox="0 0 812.82 729.6"><title>Tripadvisor_Logo_horizontal-lockup-stack_registered_RGB</title><path d="M346.87,517.5a71.94,71.94,0,1,0-71.93-71.93A71.94,71.94,0,0,0,346.87,517.5Z" transform="translate(-143.89 -143.89)"/><circle cx="608.53" cy="301.68" r="71.94"/><path d="M144.1,445.57c0,112,90.78,202.77,202.77,202.77a202,202,0,0,0,137.81-54.05l65,70.73,65-70.69a202,202,0,0,0,137.77,54c112,0,202.86-90.79,202.86-202.77A202.29,202.29,0,0,0,889.13,295.7l66.35-72.19H808.39a459.49,459.49,0,0,0-517,0H143.89l66.35,72.19A202.28,202.28,0,0,0,144.1,445.57Zm745.55,0A137.23,137.23,0,1,1,752.42,308.34,137.23,137.23,0,0,1,889.65,445.57Zm-340-235.33A393.78,393.78,0,0,1,702,240.7c-86.61,33.14-152.28,110.62-152.28,200.91,0-90.3-65.69-167.79-152.31-200.92A393.7,393.7,0,0,1,549.65,210.24Zm-202.78,98.1A137.23,137.23,0,1,1,209.64,445.57,137.23,137.23,0,0,1,346.87,308.34Z" transform="translate(-143.89 -143.89)"/><path d="M948.42,833.27a8.29,8.29,0,1,0,8.29,8.29A8.3,8.3,0,0,0,948.42,833.27Zm0,15.28a7,7,0,1,1,7-7A7,7,0,0,1,948.42,848.55Z" transform="translate(-143.89 -143.89)"/><path d="M951.11,840.15a2.36,2.36,0,0,0-2.64-2.4h-2.65v7.54h1.3v-2.74h1.41l1.37,2.74h1.41l-1.51-3A2.18,2.18,0,0,0,951.11,840.15Zm-2.7,1.25h-1.29v-2.5h1.29c.87,0,1.4.44,1.4,1.25S949.28,841.4,948.41,841.4Z" transform="translate(-143.89 -143.89)"/><path d="M238.87,777.87V763.59H217v85h21.9V797.61c0-9.23,5.92-13.76,15.15-13.76h12V763.59H255.76C247.75,763.59,240.78,767.77,238.87,777.87Z" transform="translate(-143.89 -143.89)"/><path d="M286.51,730a13.32,13.32,0,1,0,13.23,13.41A13.15,13.15,0,0,0,286.51,730Z" transform="translate(-143.89 -143.89)"/><rect x="131.7" y="619.7" width="21.84" height="84.95"/><path d="M357.57,762.16a42.22,42.22,0,0,0-25.78,8.62v-7.19H310V873.48h21.84V841.36A42.28,42.28,0,0,0,357.57,850a43.91,43.91,0,0,0,0-87.82Zm-1.93,67.76a23.86,23.86,0,1,1,23.86-23.85A23.85,23.85,0,0,1,355.64,829.92Z" transform="translate(-143.89 -143.89)"/><path d="M781.14,798.62l-12.74-3.5c-8.38-2.18-11.65-4.76-11.65-9.19s4.59-7.33,11.16-7.33c6.26,0,11.16,4.1,11.16,9.33v.49H799.2v-.49c0-15.42-12.57-25.77-31.29-25.77-18.54,0-32,10.35-32,24.61,0,11.09,7.36,19.45,20.18,22.92L768.3,813c9.27,2.57,12.71,5.42,12.71,10.52,0,5.38-5,9-12.39,9-7.74,0-12.93-4.89-12.93-12.16v-.49H734.32v.49c0,17.43,14,29.6,34.12,29.6,19.36,0,33.41-11.89,33.41-28.27C801.85,813.69,798.26,803.18,781.14,798.62Z" transform="translate(-143.89 -143.89)"/><path d="M479,770.78a42.22,42.22,0,0,0-25.78-8.62,43.91,43.91,0,0,0,0,87.82A42.28,42.28,0,0,0,479,841.36v7.19h21.84v-85H479Zm0,35.29a23.86,23.86,0,1,1-23.85-23.86A23.85,23.85,0,0,1,479,806.07Z" transform="translate(-143.89 -143.89)"/><path d="M579.68,770.78a42.21,42.21,0,0,0-25.77-8.62,43.91,43.91,0,1,0,0,87.82,42.28,42.28,0,0,0,25.77-8.62v7.19h21.84V733.35H579.68Zm-23.85,59.14a23.86,23.86,0,1,1,23.85-23.85A23.85,23.85,0,0,1,555.83,829.92Z" transform="translate(-143.89 -143.89)"/><rect x="559.06" y="619.7" width="21.84" height="84.95"/><path d="M713.87,730a13.32,13.32,0,1,0,13.23,13.41A13.15,13.15,0,0,0,713.87,730Z" transform="translate(-143.89 -143.89)"/><path d="M852.36,762.16a43.91,43.91,0,1,0,43.91,43.91A43.91,43.91,0,0,0,852.36,762.16Zm0,67.76a23.86,23.86,0,1,1,23.85-23.85A23.85,23.85,0,0,1,852.36,829.92Z" transform="translate(-143.89 -143.89)"/><polygon points="83.79 589.46 0 589.46 0 608.95 31.02 608.95 31.02 704.66 52.78 704.66 52.78 608.95 83.79 608.95 83.79 589.46"/><polygon points="507.55 681.39 488.13 619.7 465.18 619.7 494.32 704.66 520.61 704.66 549.92 619.7 526.98 619.7 507.55 681.39"/><path d="M955.4,783.85V763.59H945.17c-8,0-15,4.18-16.89,14.28V763.59H906.39v85h21.89V797.61c0-9.23,5.92-13.76,15.15-13.76Z" transform="translate(-143.89 -143.89)"/></svg>